# xmcd
# Copyright (C) 1995-1998 Ti Kan
#
# Track frame offsets:
#       150
#       4142
#       22551
#       38032
#       54686
#       66823
#       89457
#       106251
#       119792
#       136150
#       147365
#       161625
#       170793
#       181698
#       195245
#       214180
#       242775
#
# Disc length: 3795 seconds
#
# Revision: 0
# Processed by: cddbd v1.4PL0 Copyright (c) Steve Scherf et al.
# Submitted via: CD-Transfer v1.0
#
DISCID=e70ed111
DTITLE=Various Artist - Das Fähnlein der sieben Aufrechten
DYEAR=01
DGENRE=
TTITLE0=Opening Theme
TTITLE1=F   Du bisch das
TTITLE2=Kisha   Düre Wind
TTITLE3=D Doppel S   I wünschti mir
TTITLE4=I wollt ä Frou
TTITLE5=Hemines Ankunft
TTITLE6=Ruckattack
TTITLE7=Zurigo Boogie-Jazz
TTITLE8=Der Hassbesuch
TTITLE9=Lovegarden
TTITLE10=Schiessübung
TTITLE11=Die Abfahrtsrede
TTITLE12=Hig Noon in der Kirche
TTITLE13=Trailer
TTITLE14=
TTITLE15=
TTITLE16=Data Track
EXTD=
EXTT0=
EXTT1=
EXTT2=
EXTT3=
EXTT4=
EXTT5=
EXTT6=
EXTT7=
EXTT8=
EXTT9=
EXTT10=
EXTT11=
EXTT12=
EXTT13=
EXTT14=
EXTT15=
EXTT16=
PLAYORDER=
